# xmcd
#
# Track frame offsets:
#	187
#	31402
#	51962
#	68940
#	94012
#	119262
#	151017
#	167810
#	185707
#	206677
#
# Disc length: 3160 seconds
#
# Revision: 1
# Processed by: cddbd v1.4PL0 Copyright (c) Steve Scherf et al.
# Submitted via: EasyCDDAExtractor 5.0.7
#
DISCID=870c560a
DTITLE=Various Artist - Tinh He Ruc Nang
DYEAR=1900
DGENRE=
TTITLE0=Julie - Cadillac
TTITLE1=B Shane D Quang - Le monde est beau
TTITLE2=Kim Ngan - Kimigasuki
TTITLE3=M Xuan D Quang - When will I see you again
TTITLE4=B Shane D Quang - la femme de mon ami
TTITLE5=Julie - Cha cha cha
TTITLE6=Kieu Nga - Donnez Moi
TTITLE7=B Shane D Quang - Seal with a kiss
TTITLE8=Kim Ngan - Cheri, chery lady
TTITLE9=M Xuan M Phuc - C'est bon pr la morale
EXTD=
EXTT0=
EXTT1=
EXTT2=
EXTT3=
EXTT4=
EXTT5=
EXTT6=
EXTT7=
EXTT8=
EXTT9=
PLAYORDER=
